#!OML:ASF H:\Terrain\Patient Classification 1\Animal2\Wednesday\Animal2.ASF
:FULLY-SPECIFIED
:DEGREES
1283
root 26.0807 16.539 13.8902 175.208 74.0916 148.964
lowerback 21.0362 -7.40945 4.19507
upperback -7.17465 -8.62674 1.3736
thorax -20.3029 -4.06329 2.50172
lowerneck 7.51705 6.51863 -2.73809
upperneck -41.1247 7.79951 -10.8693
head -15.3424 6.12473 -5.5543
rclavicle -4.83047e-014 1.39149e-014
rhumerus 66.5021 -5.96477 -29.9575
rradius 48.0829
rwrist -27.1562
rhand -24.2615 -1.74418
rfingers 7.12502
rthumb 2.22483 -31.7123
lclavicle -4.83047e-014 1.39149e-014
lhumerus 7.86138 20.9784 -21.3701
lradius 70.2763
lwrist 80.4365
lhand -35.2885 22.4985
lfingers 7.12502
lthumb -8.42317 52.3106
rfemur -63.5175 -2.96158 11.175
rtibia 63.8365
rfoot -25.6964 -2.13453
rtoes 18.5391
lfemur -57.0197 -8.00292 -10.5592
ltibia 62.1567
lfoot -19.0194 -0.0401005
ltoes -10.6575
1284
root 26.0827 16.513 13.8834 175.677 73.9618 149.625
lowerback 21.0386 -7.49296 4.22435
upperback -7.24341 -8.72909 1.3919
thorax -20.3972 -4.10563 2.55446
lowerneck 7.35358 6.48042 -2.60006
upperneck -41.0312 7.82633 -10.7296
head -15.251 6.09158 -5.49424
rclavicle 5.31749e-014 5.68524e-014
rhumerus 66.569 -6.37115 -30.2258
rradius 48.1005
rwrist -26.9298
rhand -24.1032 -1.35064
rfingers 7.12502
rthumb 2.37768 -31.3171
lclavicle 5.31749e-014 5.68524e-014
lhumerus 7.74504 20.4589 -21.3472
lradius 70.4963
lwrist 80.4062
lhand -34.927 22.8004
lfingers 7.12502
lthumb -8.07431 52.6261
rfemur -63.4985 -3.10233 11.3892
rtibia 64.2112
rfoot -25.7556 -2.47781
rtoes 17.2086
lfemur -57.05 -7.63584 -10.297
ltibia 62.3079
lfoot -19.1863 0.104409
ltoes -12.7697
1285
root 26.0896 16.5017 13.8728 175.367 73.8631 149.526
lowerback 20.9821 -7.55827 4.12368
upperback -7.24657 -8.86425 1.33386
thorax -20.3651 -4.1576 2.5891
lowerneck 7.21515 6.47 -2.50002
upperneck -41.0819 7.86115 -10.7027
head -15.2351 6.08956 -5.49866
rclavicle -6.86801e-014 2.38542e-015
rhumerus 66.7018 -6.82811 -30.4595
rradius 48.227
rwrist -27.1129
rhand -24.001 -1.26437
rfingers 7.12502
rthumb 2.47642 -31.2297
lclavicle -6.86801e-014 2.38542e-015
lhumerus 7.63557 19.985 -21.3468
lradius 70.5301
lwrist 80.2987
lhand -34.783 23.1785
lfingers 7.12502
lthumb -7.93537 53.0095
rfemur -63.3891 -3.19305 11.3255
rtibia 64.5384
rfoot -25.8341 -2.49443
rtoes 16.8886
lfemur -56.9158 -7.29551 -10.3093
ltibia 62.3799
lfoot -19.0455 0.537545
ltoes -16.174
1286
root 26.0926 16.4859 13.8621 174.955 73.7901 149.282
lowerback 20.8758 -7.59517 4.00706
upperback -7.2714 -8.97681 1.23068
thorax -20.337 -4.20289 2.56886
lowerneck 7.50281 6.47982 -1.958
upperneck -41.382 7.83037 -11.1749
head -15.3862 6.06513 -5.84382
rclavicle 2.6339e-014 4.77083e-015
rhumerus 66.7321 -7.27458 -30.7079
rradius 48.399
rwrist -27.3269
rhand -24.1166 -1.18098
rfingers 7.12502
rthumb 2.36479 -31.1476
lclavicle 2.6339e-014 4.77083e-015
lhumerus 7.57693 19.5378 -21.2879
lradius 70.6802
lwrist 80.1486
lhand -34.7547 23.0984
lfingers 7.12502
lthumb -7.90807 52.9304
rfemur -63.333 -3.235 11.1915
rtibia 64.8359
rfoot -25.9486 -2.38241
rtoes 16.99
lfemur -56.849 -6.94502 -10.3244
ltibia 62.4242
lfoot -18.9303 0.363615
ltoes -16.0149
1287
root 26.0908 16.4648 13.8526 175.74 73.7272 150.251
lowerback 20.7841 -7.67938 4.24084
upperback -7.33288 -9.03804 1.18026
thorax -20.4137 -4.26126 2.4082
lowerneck 7.70523 6.40298 -1.82912
upperneck -41.4784 7.74288 -11.129
head -15.4838 5.99717 -5.86298
rclavicle 7.48424e-014 2.60408e-014
rhumerus 66.6938 -7.69657 -31.1383
rradius 48.4737
rwrist -27.2213
rhand -24.3143 -1.37264
rfingers 7.12502
rthumb 2.17382 -31.3413
lclavicle 7.48424e-014 2.60408e-014
lhumerus 7.55524 19.1222 -21.1761
lradius 71.0411
lwrist 79.8876
lhand -34.6795 22.8354
lfingers 7.12502
lthumb -7.83542 52.6702
rfemur -63.267 -3.2076 11.4141
rtibia 65.0723
rfoot -26.0551 -2.47037
rtoes 17.1307
lfemur -56.9235 -6.62698 -9.87755
ltibia 62.4816
lfoot -18.8922 0.146025
ltoes -15.396
1288
root 26.0931 16.4485 13.8392 176.379 73.7054 151.119
lowerback 20.7317 -7.7642 4.43789
upperback -7.36118 -9.10888 1.13048
thorax -20.4652 -4.31934 2.27317
lowerneck 7.53494 6.26241 -2.20705
upperneck -41.3906 7.70126 -10.4099
head -15.4752 5.9294 -5.46526
rclavicle -1.25533e-013 3.4191e-014
rhumerus 66.7339 -8.06494 -31.5292
rradius 48.5681
rwrist -27.1725
rhand -24.4766 -1.72276
rfingers 7.12502
rthumb 2.01702 -31.693
lclavicle -1.25533e-013 3.4191e-014
lhumerus 7.47212 18.7273 -21.0336
lradius 71.3286
lwrist 79.4921
lhand -34.2656 23.3127
lfingers 7.12502
lthumb -7.43591 53.1621
rfemur -63.1032 -3.16743 11.5913
rtibia 65.2576
rfoot -26.245 -2.34371
rtoes 18.2049
lfemur -56.8884 -6.60641 -9.32902
ltibia 62.501
lfoot -18.6381 0.636896
ltoes -16.0609
